:FULLY-SPECIFIED
:FORCE-ALL-JOINTS-BE-3DOF
:DEGREES
714
root -12.4151 13.7211 -38.1194 516.668 -58.6564 208.229
lfemur -64.2888 27.709 1.80354
ltibia 75.5325 0 0
lfoot -9.15205 -9.16109 0
ltoes -1.26684 0 0
rfemur 13.0516 -9.22042 10.164
rtibia 37.4222 0 0
rfoot -25.046 -27.9554 0
rtoes -26.9224 0 0
lowerback 11.5539 1.26346 10.0716
upperback -1.80955 3.37905 6.14776
thorax -8.26766 1.1811 0.340461
lowerneck -5.11642 5.66801 1.36598
upperneck 4.67842 7.43739 0.920413
head 2.25531 3.75673 0.283515
lclavicle 2.41333e-14 -5.50642e-15 0
lhumerus 67.5084 22.2518 113.187
lradius 1.46945 0 0
lwrist -91.2714 0 0
lhand -38.5977 38.3594 0
lfingers 7.12502 0 0
lthumb -11.612 68.4275 0
rclavicle 2.41333e-14 -5.50642e-15 0
rhumerus -92.0199 18.6503 -101.52
rradius 117.102 0 0
rwrist -71.2039 0 0
rhand -12.8776 -45.232 0
rfingers 7.12502 0 0
rthumb 13.2283 -74.966 0
715
root -12.4204 13.7212 -38.1269 516.466 -58.7274 208.495
lfemur -64.4299 27.7722 1.71518
ltibia 75.7102 0 0
lfoot -9.27479 -9.19757 0
ltoes -1.25421 0 0
rfemur 13.1956 -9.35006 10.2275
rtibia 37.1418 0 0
rfoot -25.0214 -28.0491 0
rtoes -27.1506 0 0
lowerback 11.5187 1.25435 10.1286
upperback -1.82103 3.37261 6.16225
thorax -8.258 1.17548 0.326253
lowerneck -5.0721 5.62967 1.37696
upperneck 4.66881 7.38657 0.912395
head 2.24614 3.73099 0.276986
lclavicle 2.5011e-14 -6.43923e-15 0
lhumerus 67.4105 22.1034 113.092
lradius 1.68265 0 0
lwrist -91.2195 0 0
lhand -38.5071 38.3152 0
lfingers 7.12502 0 0
lthumb -11.5247 68.3794 0
rclavicle 2.5011e-14 -6.43923e-15 0
rhumerus -91.8859 18.6707 -101.599
rradius 117.165 0 0
rwrist -71.0793 0 0
rhand -12.5682 -44.7768 0
rfingers 7.12502 0 0
rthumb 13.5261 -74.4854 0
716
root -12.4211 13.7227 -38.1355 516.231 -58.814 208.792
lfemur -64.5737 27.8208 1.612
ltibia 75.8889 0 0
lfoot -9.39454 -9.22722 0
ltoes -1.25361 0 0
rfemur 13.3188 -9.48822 10.3024
rtibia 36.878 0 0
rfoot -24.9968 -28.1428 0
rtoes -27.3737 0 0
lowerback 11.487 1.24595 10.1806
upperback -1.83231 3.36664 6.17475
thorax -8.25026 1.17032 0.312495
lowerneck -5.0246 5.58534 1.38305
upperneck 4.65599 7.32786 0.907332
head 2.23573 3.70128 0.272037
lclavicle 2.58623e-14 -7.40467e-15 0
lhumerus 67.2815 21.9156 112.965
lradius 1.95998 0 0
lwrist -91.0903 0 0
lhand -38.3859 38.2586 0
lfingers 7.12502 0 0
lthumb -11.4078 68.3177 0
rclavicle 2.58623e-14 -7.40467e-15 0
rhumerus -91.6553 18.6941 -101.646
rradius 117.219 0 0
rwrist -70.928 0 0
rhand -12.2347 -44.2894 0
rfingers 7.12502 0 0
rthumb 13.847 -73.9694 0
717
root -12.4175 13.7253 -38.1451 515.968 -58.9148 209.117
lfemur -64.7193 27.8549 1.4954
ltibia 76.0673 0 0
lfoot -9.51053 -9.24992 0
ltoes -1.26497 0 0
rfemur 13.421 -9.63298 10.3871
rtibia 36.6324 0 0
rfoot -24.9723 -28.2356 0
rtoes -27.5916 0 0
lowerback 11.4587 1.2383 10.2271
upperback -1.84326 3.36115 6.18524
thorax -8.24429 1.16563 0.299388
lowerneck -4.97419 5.5359 1.38478
upperneck 4.64002 7.26246 0.904693
head 2.22415 3.6682 0.268434
lclavicle 2.66838e-14 -8.39883e-15 0
lhumerus 67.1244 21.6923 112.806
lradius 2.29535 0 0
lwrist -90.8887 0 0
lhand -38.2364 38.1903 0
lfingers 7.12502 0 0
lthumb -11.2637 68.2433 0
rclavicle 2.66838e-14 -8.39883e-15 0
rhumerus -91.3349 18.7201 -101.662
rradius 117.262 0 0
rwrist -70.7506 0 0
rhand -11.8783 -43.7736 0
rfingers 7.12502 0 0
rthumb 14.1899 -73.4218 0
718
root -12.4099 13.729 -38.1557 515.681 -59.0285 209.464
lfemur -64.8661 27.8747 1.36679
ltibia 76.2443 0 0
lfoot -9.62198 -9.26554 0
ltoes -1.28826 0 0
rfemur 13.5019 -9.78243 10.4801
rtibia 36.4069 0 0
rfoot -24.948 -28.3262 0
rtoes -27.8045 0 0
lowerback 11.4338 1.23146 10.2676
upperback -1.85376 3.35609 6.19365
thorax -8.23998 1.16142 0.287133
lowerneck -4.92114 5.48227 1.38271
upperneck 4.62093 7.19156 0.903948
head 2.21144 3.63234 0.265942
lclavicle 2.74724e-14 -9.41779e-15 0
lhumerus 66.9423 21.4368 112.618
lradius 2.68263 0 0
lwrist -90.6193 0 0
lhand -38.061 38.1111 0
lfingers 7.12502 0 0
lthumb -11.0946 68.1569 0
rclavicle 2.74724e-14 -9.41779e-15 0
rhumerus -90.9317 18.7482 -101.649
rradius 117.294 0 0
rwrist -70.5475 0 0
rhand -11.5002 -43.233 0
rfingers 7.12502 0 0
rthumb 14.5536 -72.8462 0
719
root -12.3985 13.7337 -38.1671 515.374 -59.1538 209.829
lfemur -65.0135 27.8806 1.22755
ltibia 76.4188 0 0
lfoot -9.72809 -9.27396 0
ltoes -1.32342 0 0
rfemur 13.5613 -9.93466 10.58
rtibia 36.2032 0 0
rfoot -24.924 -28.4135 0
rtoes -28.0123 0 0
lowerback 11.4123 1.22548 10.3018
upperback -1.8637 3.35147 6.19994
thorax -8.23719 1.15771 0.275932
lowerneck -4.86572 5.42534 1.37738
upperneck 4.59878 7.11637 0.904566
head 2.19763 3.5943 0.264327
lclavicle 2.82246e-14 -1.04576e-14 0
lhumerus 66.7383 21.1528 112.402
lradius 3.11571 0 0
lwrist -90.2871 0 0
lhand -37.8622 38.0215 0
lfingers 7.12502 0 0
lthumb -10.903 68.0593 0
rclavicle 2.82246e-14 -1.04576e-14 0
rhumerus -90.4524 18.778 -101.607
rradius 117.314 0 0
rwrist -70.3192 0 0
rhand -11.1014 -42.671 0
rfingers 7.12502 0 0
rthumb 14.937 -72.2465 0
720
root -12.3837 13.7392 -38.1793 515.053 -59.2892 210.207
lfemur -65.1608 27.8727 1.07908
ltibia 76.5896 0 0
lfoot -9.8281 -9.27506 0
ltoes -1.37041 0 0
rfemur 13.599 -10.0878 10.6851
rtibia 36.0229 0 0
rfoot -24.9004 -28.4965 0
rtoes -28.215 0 0
lowerback 11.394 1.22041 10.3292
upperback -1.87296 3.34726 6.20406
thorax -8.2358 1.15453 0.265986
lowerneck -4.80818 5.36602 1.36933
upperneck 4.5736 7.03809 0.906016
head 2.1828 3.55467 0.263355
lclavicle 2.8937e-14 -1.15145e-14 0
lhumerus 66.5155 20.8438 112.161
lradius 3.58849 0 0
lwrist -89.8966 0 0
lhand -37.6423 37.9223 0
lfingers 7.12502 0 0
lthumb -10.6911 67.9514 0
rclavicle 2.8937e-14 -1.15145e-14 0
rhumerus -89.904 18.809 -101.537
rradius 117.318 0 0
rwrist -70.0661 0 0
rhand -10.6832 -42.0913 0
rfingers 7.12502 0 0
rthumb 15.3391 -71.6262 0
721
root -12.3658 13.7454 -38.192 514.722 -59.4336 210.594
lfemur -65.3074 27.8512 0.922788
ltibia 76.7555 0 0
lfoot -9.92122 -9.2687 0
ltoes -1.42916 0 0
rfemur 13.6148 -10.2398 10.794
rtibia 35.8679 0 0
rfoot -24.8773 -28.5741 0
rtoes -28.4128 0 0
lowerback 11.379 1.2163 10.3494
upperback -1.88142 3.34345 6.20598
thorax -8.23566 1.15187 0.257495
lowerneck -4.74879 5.3052 1.35912
upperneck 4.54545 6.9579 0.907769
head 2.16697 3.51407 0.262791
lclavicle 2.96065e-14 -1.25844e-14 0
lhumerus 66.2768 20.5134 111.897
lradius 4.09486 0 0
lwrist -89.4528 0 0
lhand -37.4039 37.814 0
lfingers 7.12502 0 0
lthumb -10.4612 67.8339 0
rclavicle 2.96065e-14 -1.25844e-14 0
rhumerus -89.2934 18.8407 -101.44
rradius 117.307 0 0
rwrist -69.7888 0 0
rhand -10.2467 -41.4974 0
rfingers 7.12502 0 0
rthumb 15.7586 -70.9891 0
722
root -12.3451 13.7521 -38.2051 514.384 -59.5856 210.984
lfemur -65.4525 27.8164 0.760063
ltibia 76.9154 0 0
lfoot -10.0067 -9.25476 0
ltoes -1.49964 0 0
rfemur 13.6084 -10.3889 10.9052
rtibia 35.7399 0 0
rfoot -24.8549 -28.6451 0
rtoes -28.6056 0 0
lowerback 11.3673 1.2132 10.362
upperback -1.88896 3.34001 6.20563
thorax -8.23666 1.14977 0.250662
lowerneck -4.68781 5.2438 1.34728
upperneck 4.51437 6.877 0.909294
head 2.15019 3.47307 0.262401
lclavicle 3.02296e-14 -1.36635e-14 0
lhumerus 66.0255 20.1652 111.612
lradius 4.62871 0 0
lwrist -88.9603 0 0
lhand -37.1492 37.6974 0
lfingers 7.12502 0 0
lthumb -10.2156 67.7075 0
rclavicle 3.02296e-14 -1.36635e-14 0
rhumerus -88.6275 18.8726 -101.316
rradius 117.279 0 0
rwrist -69.4877 0 0
rhand -9.79311 -40.893 0
rfingers 7.12502 0 0
rthumb 16.1945 -70.3388 0
